<svg id="Layer_1" data-name="Layer 1" xmlns="http://www.w3.org/2000/svg" viewBox="0 0 309.03 62.03"><defs><style>.cls-1{fill:#fff;}.cls-2{fill:#d11242;}.cls-3{fill:#d31242;}.cls-4{fill:#003770;}</style></defs><path class="cls-1" d="M88.94,12.57H104v5.14H95V20h8.4v4.68H95v5.89h-6Z"/><path class="cls-1" d="M109.63,12.44h6l7.58,18.13h-6.53l-1-2.42h-6.3l-.92,2.42h-6.43Zm4.58,11.44-1.65-4.37-1.64,4.37Z"/><path class="cls-1" d="M123.92,12.57h6.28l3.86,6.33,3.85-6.33h6.27v18h-6V21.65l-4.13,6.4H134l-4.14-6.4v8.92h-5.89Z"/><path class="cls-1" d="M146.29,12.57h6v18h-6Z"/><path class="cls-1" d="M154.41,12.57h6V25.43h8.46v5.14H154.41Z"/><path class="cls-1" d="M172.21,24.19l-6.79-11.62h6.74l3.08,5.92,3.11-5.92H185l-6.79,11.55v6.45h-6Z"/><path class="cls-1" d="M193.53,30.88a9,9,0,0,1-9-9.26v-.05a9.05,9.05,0,1,1,18.1-.05s0,0,0,.05A9.06,9.06,0,0,1,193.53,30.88Zm7.69-9.31a7.79,7.79,0,0,0-7.69-8.1c-4.45,0-7.64,3.6-7.64,8v.05a7.79,7.79,0,0,0,7.69,8.1c4.45,0,7.64-3.6,7.64-8Z"/><path class="cls-1" d="M222.71,30.7h-1.08l-5.27-15.63L211.09,30.7H210l-6.53-18.13H205l5.66,16,5.27-16.07h1l5.27,16.07,5.65-16h1.39Z"/><path class="cls-1" d="M246.52,30.57l-12.68-16v16h-1.28v-18h1.26l12.42,15.66V12.57h1.28v18Z"/><path class="cls-1" d="M251.87,30.57v-18h12.8v1.24H253.2v7.07h10.31v1.23H253.2v7.23h11.6v1.23Z"/><path class="cls-1" d="M275.08,30.57h-6v-18h6c5.66,0,9.57,3.88,9.57,9v.05C284.65,26.64,280.74,30.57,275.08,30.57Zm8.18-9c0-4.27-3.16-7.76-8.18-7.76h-4.65V29.34h4.65c5,0,8.18-3.42,8.18-7.72Z"/><path class="cls-1" d="M95.21,34.79h6l7.58,18.12h-6.53l-1-2.41H95l-.92,2.41H87.63Zm4.58,11.44-1.65-4.37L96.5,46.23Z"/><path class="cls-1" d="M109.5,34.92h6.28l3.85,6.32,3.86-6.32h6.27v18h-6V44l-4.14,6.4h-.1L115.39,44v8.92H109.5Z"/><path class="cls-1" d="M131.82,34.92h15.35v4.93h-9.44v1.83h8.8V46h-8.8v2h9.57v4.93H131.82Z"/><path class="cls-1" d="M148.91,34.92h8.8c3.19,0,5.22.79,6.48,2a5.66,5.66,0,0,1,1.64,4.27v0a5.81,5.81,0,0,1-3.55,5.5l4.2,6.12h-6.87l-3.39-5.14h-1.29v5.14h-6Zm8.62,8.56c1.44,0,2.31-.65,2.31-1.75v0c0-1.16-.9-1.72-2.29-1.72h-2.62v3.52Z"/><path class="cls-1" d="M167.35,34.92h6v18h-6Z"/><path class="cls-1" d="M175.06,44v-.06a9.3,9.3,0,0,1,9.56-9.38,8.82,8.82,0,0,1,8.15,4.68l-5,2.91a3.49,3.49,0,0,0-3.26-2.19c-2,0-3.37,1.77-3.37,3.93v0c0,2.34,1.39,4,3.37,4a3.69,3.69,0,0,0,3.39-2.26l5,2.8A9.53,9.53,0,0,1,175.06,44Z"/><path class="cls-1" d="M200,34.79h6l7.58,18.12H207l-.95-2.41h-6.3l-.92,2.41h-6.43Zm4.58,11.44L203,41.86l-1.65,4.37Z"/><path class="cls-1" d="M214.32,34.92H220l6.4,7.94V34.92h6v18H227l-6.69-8.3v8.3h-6Z"/><path class="cls-1" d="M251.65,52.91V37.28l-7.13,10.36h-.1L237.3,37.28V52.91H236v-18h1.26l7.23,10.64,7.22-10.64H253v18Z"/><path class="cls-1" d="M272.73,52.91l-2.29-5H259.82l-2.29,5h-1.39l8.38-18.12h1.29l8.38,18.12Zm-7.59-16.66-4.75,10.42h9.48Z"/><path class="cls-1" d="M283,52.91h-6v-18h6c5.65,0,9.56,3.88,9.56,8.94v0C292.55,49,288.64,52.91,283,52.91Zm8.17-9c0-4.26-3.16-7.76-8.17-7.76h-4.66V51.68H283c5,0,8.17-3.42,8.17-7.71Z"/><path class="cls-1" d="M296.1,52.91v-18h12.8v1.23H297.44v7.07h10.31v1.24H297.44v7.22H309v1.23Z"/><rect class="cls-1" x="79.28" width="0.76" height="62.03"/><rect class="cls-2" x="31.75" y="9.96" width="39.68" height="3.31"/><rect class="cls-1" y="13.27" width="71.43" height="3.31"/><rect class="cls-3" x="31.75" y="16.58" width="39.68" height="3.31"/><rect class="cls-1" y="19.89" width="71.43" height="3.31"/><rect class="cls-3" x="31.69" y="23.19" width="39.75" height="3.31"/><rect class="cls-1" y="26.5" width="71.43" height="3.31"/><rect class="cls-3" x="31.56" y="29.81" width="39.87" height="3.31"/><rect class="cls-1" y="33.11" width="71.43" height="3.31"/><rect class="cls-3" y="36.37" width="71.43" height="3.31"/><rect class="cls-1" y="39.68" width="71.43" height="3.31"/><rect class="cls-3" y="42.98" width="71.43" height="3.31"/><rect class="cls-1" y="46.29" width="71.43" height="3.31"/><rect class="cls-3" y="49.6" width="71.43" height="3.31"/><rect class="cls-4" y="9.96" width="31.84" height="23.15"/><polygon class="cls-1" points="1.79 10.46 2.03 11.26 2.85 11.23 2.17 11.71 2.44 12.48 1.79 11.97 1.14 12.48 1.41 11.7 0.73 11.23 1.56 11.25 1.79 10.46"/><polygon class="cls-1" points="7.02 10.46 7.26 11.26 8.07 11.23 7.39 11.71 7.67 12.48 7 11.97 6.36 12.48 6.64 11.7 5.96 11.23 6.79 11.25 7.02 10.46"/><polygon class="cls-1" points="12.8 10.46 13.04 11.26 13.87 11.23 13.18 11.71 13.46 12.48 12.79 11.97 12.14 12.48 12.42 11.7 11.75 11.23 12.58 11.25 12.8 10.46"/><polygon class="cls-1" points="18.64 10.46 18.89 11.26 19.7 11.23 19.02 11.71 19.3 12.48 18.63 11.97 17.98 12.48 18.26 11.7 17.59 11.23 18.42 11.25 18.64 10.46"/><polygon class="cls-1" points="24.16 10.46 24.4 11.26 25.22 11.23 24.54 11.71 24.81 12.48 24.16 11.97 23.5 12.48 23.78 11.7 23.1 11.23 23.94 11.25 24.16 10.46"/><polygon class="cls-1" points="29.45 10.46 29.69 11.26 30.51 11.23 29.82 11.71 30.11 12.48 29.44 11.97 28.8 12.48 29.07 11.7 28.39 11.23 29.22 11.25 29.45 10.46"/><polygon class="cls-1" points="1.79 20.53 2.03 21.33 2.85 21.3 2.17 21.78 2.44 22.54 1.79 22.04 1.14 22.54 1.41 21.75 0.73 21.3 1.56 21.32 1.79 20.53"/><polygon class="cls-1" points="7.02 20.53 7.26 21.33 8.07 21.3 7.39 21.78 7.67 22.54 7 22.04 6.36 22.54 6.64 21.75 5.96 21.3 6.79 21.32 7.02 20.53"/><polygon class="cls-1" points="12.8 20.53 13.04 21.33 13.87 21.3 13.18 21.78 13.46 22.54 12.79 22.04 12.14 22.54 12.42 21.75 11.75 21.3 12.58 21.32 12.8 20.53"/><polygon class="cls-1" points="18.64 20.53 18.89 21.33 19.7 21.3 19.02 21.78 19.3 22.54 18.63 22.04 17.98 22.54 18.26 21.75 17.59 21.3 18.42 21.32 18.64 20.53"/><polygon class="cls-1" points="24.16 20.53 24.4 21.33 25.22 21.3 24.54 21.78 24.81 22.54 24.16 22.04 23.5 22.54 23.78 21.75 23.1 21.3 23.94 21.32 24.16 20.53"/><polygon class="cls-1" points="29.45 20.53 29.69 21.33 30.51 21.3 29.82 21.78 30.11 22.54 29.44 22.04 28.8 22.54 29.07 21.75 28.39 21.3 29.22 21.32 29.45 20.53"/><polygon class="cls-1" points="1.79 15.45 2.03 16.25 2.85 16.21 2.17 16.69 2.44 17.46 1.79 16.96 1.14 17.46 1.41 16.67 0.73 16.21 1.56 16.24 1.79 15.45"/><polygon class="cls-1" points="7.02 15.45 7.26 16.25 8.07 16.21 7.39 16.69 7.67 17.46 7 16.96 6.36 17.46 6.64 16.67 5.96 16.21 6.79 16.24 7.02 15.45"/><polygon class="cls-1" points="12.8 15.45 13.04 16.25 13.87 16.21 13.18 16.69 13.46 17.46 12.79 16.96 12.14 17.46 12.42 16.67 11.75 16.21 12.58 16.24 12.8 15.45"/><polygon class="cls-1" points="18.64 15.45 18.89 16.25 19.7 16.21 19.02 16.69 19.3 17.46 18.63 16.96 17.98 17.46 18.26 16.67 17.59 16.21 18.42 16.24 18.64 15.45"/><polygon class="cls-1" points="24.16 15.45 24.4 16.25 25.22 16.21 24.54 16.69 24.81 17.46 24.16 16.96 23.5 17.46 23.78 16.67 23.1 16.21 23.94 16.24 24.16 15.45"/><polygon class="cls-1" points="29.45 15.45 29.69 16.25 30.51 16.21 29.82 16.69 30.11 17.46 29.44 16.96 28.8 17.46 29.07 16.67 28.39 16.21 29.22 16.24 29.45 15.45"/><polygon class="cls-1" points="1.79 25.46 2.03 26.26 2.85 26.23 2.17 26.71 2.44 27.47 1.79 26.97 1.14 27.47 1.41 26.68 0.73 26.23 1.56 26.25 1.79 25.46"/><polygon class="cls-1" points="7.02 25.46 7.26 26.26 8.07 26.23 7.39 26.71 7.67 27.47 7 26.97 6.36 27.47 6.64 26.68 5.96 26.23 6.79 26.25 7.02 25.46"/><polygon class="cls-1" points="12.8 25.46 13.04 26.26 13.87 26.23 13.18 26.71 13.46 27.47 12.79 26.97 12.14 27.47 12.42 26.68 11.75 26.23 12.58 26.25 12.8 25.46"/><polygon class="cls-1" points="18.64 25.46 18.89 26.26 19.7 26.23 19.02 26.71 19.3 27.47 18.63 26.97 17.98 27.47 18.26 26.68 17.59 26.23 18.42 26.25 18.64 25.46"/><polygon class="cls-1" points="24.16 25.46 24.4 26.26 25.22 26.23 24.54 26.71 24.81 27.47 24.16 26.97 23.5 27.47 23.78 26.68 23.1 26.23 23.94 26.25 24.16 25.46"/><polygon class="cls-1" points="29.45 25.46 29.69 26.26 30.51 26.23 29.82 26.71 30.11 27.47 29.44 26.97 28.8 27.47 29.07 26.68 28.39 26.23 29.22 26.25 29.45 25.46"/><polygon class="cls-1" points="1.79 30.23 2.03 31.03 2.85 31 2.17 31.47 2.44 32.25 1.79 31.74 1.14 32.25 1.41 31.46 0.73 31 1.56 31.02 1.79 30.23"/><polygon class="cls-1" points="7.02 30.23 7.26 31.03 8.07 31 7.39 31.47 7.67 32.25 7 31.74 6.36 32.25 6.64 31.46 5.96 31 6.79 31.02 7.02 30.23"/><polygon class="cls-1" points="12.8 30.23 13.04 31.03 13.87 31 13.18 31.47 13.46 32.25 12.79 31.74 12.14 32.25 12.42 31.46 11.75 31 12.58 31.02 12.8 30.23"/><polygon class="cls-1" points="18.64 30.23 18.89 31.03 19.7 31 19.02 31.47 19.3 32.25 18.63 31.74 17.98 32.25 18.26 31.46 17.59 31 18.42 31.02 18.64 30.23"/><polygon class="cls-1" points="24.16 30.23 24.4 31.03 25.22 31 24.54 31.47 24.81 32.25 24.16 31.74 23.5 32.25 23.78 31.46 23.1 31 23.94 31.02 24.16 30.23"/><polygon class="cls-1" points="29.45 30.23 29.69 31.03 30.51 31 29.82 31.47 30.11 32.25 29.44 31.74 28.8 32.25 29.07 31.46 28.39 31 29.22 31.02 29.45 30.23"/><polygon class="cls-1" points="4.44 28.01 4.68 28.81 5.51 28.77 4.82 29.25 5.1 30.02 4.43 29.52 3.79 30.02 4.06 29.23 3.39 28.77 4.22 28.79 4.44 28.01"/><polygon class="cls-1" points="9.67 28.01 9.91 28.81 10.72 28.77 10.05 29.25 10.32 30.02 9.66 29.52 9.02 30.02 9.29 29.23 8.61 28.77 9.44 28.79 9.67 28.01"/><polygon class="cls-1" points="15.45 28.01 15.7 28.81 16.51 28.77 15.83 29.25 16.11 30.02 15.44 29.52 14.8 30.02 15.08 29.23 14.4 28.77 15.23 28.79 15.45 28.01"/><polygon class="cls-1" points="21.29 28.01 21.53 28.81 22.35 28.77 21.67 29.25 21.95 30.02 21.28 29.52 20.64 30.02 20.92 29.23 20.23 28.77 21.06 28.79 21.29 28.01"/><polygon class="cls-1" points="26.81 28.01 27.06 28.81 27.87 28.77 27.19 29.25 27.47 30.02 26.8 29.52 26.16 30.02 26.43 29.23 25.76 28.77 26.59 28.79 26.81 28.01"/><polygon class="cls-1" points="4.44 18.36 4.68 19.16 5.51 19.12 4.82 19.6 5.1 20.38 4.43 19.87 3.79 20.38 4.06 19.59 3.39 19.12 4.22 19.15 4.44 18.36"/><polygon class="cls-1" points="9.67 18.36 9.91 19.16 10.72 19.12 10.05 19.6 10.32 20.38 9.66 19.87 9.02 20.38 9.29 19.59 8.61 19.12 9.44 19.15 9.67 18.36"/><polygon class="cls-1" points="15.45 18.36 15.7 19.16 16.51 19.12 15.83 19.6 16.11 20.38 15.44 19.87 14.8 20.38 15.08 19.59 14.4 19.12 15.23 19.15 15.45 18.36"/><polygon class="cls-1" points="21.29 18.36 21.53 19.16 22.35 19.12 21.67 19.6 21.95 20.38 21.28 19.87 20.64 20.38 20.92 19.59 20.23 19.12 21.06 19.15 21.29 18.36"/><polygon class="cls-1" points="26.81 18.36 27.06 19.16 27.87 19.12 27.19 19.6 27.47 20.38 26.8 19.87 26.16 20.38 26.43 19.59 25.76 19.12 26.59 19.15 26.81 18.36"/><polygon class="cls-1" points="4.44 23.02 4.68 23.82 5.51 23.79 4.82 24.27 5.1 25.04 4.43 24.53 3.79 25.04 4.06 24.25 3.39 23.79 4.22 23.81 4.44 23.02"/><polygon class="cls-1" points="9.67 23.02 9.91 23.82 10.72 23.79 10.05 24.27 10.32 25.04 9.66 24.53 9.02 25.04 9.29 24.25 8.61 23.79 9.44 23.81 9.67 23.02"/><polygon class="cls-1" points="15.45 23.02 15.7 23.82 16.51 23.79 15.83 24.27 16.11 25.04 15.44 24.53 14.8 25.04 15.08 24.25 14.4 23.79 15.23 23.81 15.45 23.02"/><polygon class="cls-1" points="21.29 23.02 21.53 23.82 22.35 23.79 21.67 24.27 21.95 25.04 21.28 24.53 20.64 25.04 20.92 24.25 20.23 23.79 21.06 23.81 21.29 23.02"/><polygon class="cls-1" points="26.81 23.02 27.06 23.82 27.87 23.79 27.19 24.27 27.47 25.04 26.8 24.53 26.16 25.04 26.43 24.25 25.76 23.79 26.59 23.81 26.81 23.02"/><polygon class="cls-1" points="4.44 13.38 4.68 14.17 5.51 14.15 4.82 14.63 5.1 15.39 4.43 14.89 3.79 15.39 4.06 14.61 3.39 14.15 4.22 14.16 4.44 13.38"/><polygon class="cls-1" points="9.67 13.38 9.91 14.17 10.72 14.15 10.05 14.63 10.32 15.39 9.66 14.89 9.02 15.39 9.29 14.61 8.61 14.15 9.44 14.16 9.67 13.38"/><polygon class="cls-1" points="15.45 13.38 15.7 14.17 16.51 14.15 15.83 14.63 16.11 15.39 15.44 14.89 14.8 15.39 15.08 14.61 14.4 14.15 15.23 14.16 15.45 13.38"/><polygon class="cls-1" points="21.29 13.38 21.53 14.17 22.35 14.15 21.67 14.63 21.95 15.39 21.28 14.89 20.64 15.39 20.92 14.61 20.23 14.15 21.06 14.16 21.29 13.38"/><polygon class="cls-1" points="26.81 13.38 27.06 14.17 27.87 14.15 27.19 14.63 27.47 15.39 26.8 14.89 26.16 15.39 26.43 14.61 25.76 14.15 26.59 14.16 26.81 13.38"/></svg>